# xmcd
#
# Track frame offsets: 
#        150
#        16235
#        32937
#        49072
#        76420
#
# Disc length: 1653 seconds
#
# Revision: 5
# Processed by: cddbd v1.5.2PL0 Copyright (c) Steve Scherf et al.
# Submitted via: ExactAudioCopy v0.95b4
#
DISCID=34067305
DTITLE=Shania Twain - Party For Two
DYEAR=2004
DGENRE=Pop
TTITLE0=Party For Two (with Mark McGrath) (Pop Version with Intro)
TTITLE1=You're Still The One (Featuring Alison Krauss)
TTITLE2=I'm Holding On To Love (To Save My Life) (Featuring Alison Kra
TTITLE2=uss)
TTITLE3=Party For Two (with Billy Currington) (Country Version With In
TTITLE3=tro)
TTITLE4=EnhancedCD-Part: Party For Two (Video)
EXTD=Label: Mercury Records\n602498644638
EXTT0=
EXTT1=
EXTT2=
EXTT3=
EXTT4=
PLAYORDER=
